<svg xmlns="http://www.w3.org/2000/svg" viewBox="0 0 1920 1080" preserveAspectRatio="xMidYMid slice">
  <rect width="1920" height="1080" fill="#0d3a6b"/>
  <line x1="0" y1="0" x2="0" y2="1080" stroke="rgba(255,255,255,0.18)" stroke-width="1"/>
<line x1="80" y1="0" x2="80" y2="1080" stroke="rgba(255,255,255,0.18)" stroke-width="1"/>
<line x1="160" y1="0" x2="160" y2="1080" stroke="rgba(255,255,255,0.18)" stroke-width="1"/>
<line x1="240" y1="0" x2="240" y2="1080" stroke="rgba(255,255,255,0.18)" stroke-width="1"/>
<line x1="320" y1="0" x2="320" y2="1080" stroke="rgba(255,255,255,0.18)" stroke-width="1"/>
<line x1="400" y1="0" x2="400" y2="1080" stroke="rgba(255,255,255,0.18)" stroke-width="1"/>
<line x1="480" y1="0" x2="480" y2="1080" stroke="rgba(255,255,255,0.18)" stroke-width="1"/>
<line x1="560" y1="0" x2="560" y2="1080" stroke="rgba(255,255,255,0.18)" stroke-width="1"/>
<line x1="640" y1="0" x2="640" y2="1080" stroke="rgba(255,255,255,0.18)" stroke-width="1"/>
<line x1="720" y1="0" x2="720" y2="1080" stroke="rgba(255,255,255,0.18)" stroke-width="1"/>
<line x1="800" y1="0" x2="800" y2="1080" stroke="rgba(255,255,255,0.18)" stroke-width="1"/>
<line x1="880" y1="0" x2="880" y2="1080" stroke="rgba(255,255,255,0.18)" stroke-width="1"/>
<line x1="960" y1="0" x2="960" y2="1080" stroke="rgba(255,255,255,0.18)" stroke-width="1"/>
<line x1="1040" y1="0" x2="1040" y2="1080" stroke="rgba(255,255,255,0.18)" stroke-width="1"/>
<line x1="1120" y1="0" x2="1120" y2="1080" stroke="rgba(255,255,255,0.18)" stroke-width="1"/>
<line x1="1200" y1="0" x2="1200" y2="1080" stroke="rgba(255,255,255,0.18)" stroke-width="1"/>
<line x1="1280" y1="0" x2="1280" y2="1080" stroke="rgba(255,255,255,0.18)" stroke-width="1"/>
<line x1="1360" y1="0" x2="1360" y2="1080" stroke="rgba(255,255,255,0.18)" stroke-width="1"/>
<line x1="1440" y1="0" x2="1440" y2="1080" stroke="rgba(255,255,255,0.18)" stroke-width="1"/>
<line x1="1520" y1="0" x2="1520" y2="1080" stroke="rgba(255,255,255,0.18)" stroke-width="1"/>
<line x1="1600" y1="0" x2="1600" y2="1080" stroke="rgba(255,255,255,0.18)" stroke-width="1"/>
<line x1="1680" y1="0" x2="1680" y2="1080" stroke="rgba(255,255,255,0.18)" stroke-width="1"/>
<line x1="1760" y1="0" x2="1760" y2="1080" stroke="rgba(255,255,255,0.18)" stroke-width="1"/>
<line x1="1840" y1="0" x2="1840" y2="1080" stroke="rgba(255,255,255,0.18)" stroke-width="1"/>
<line x1="1920" y1="0" x2="1920" y2="1080" stroke="rgba(255,255,255,0.18)" stroke-width="1"/>
<line x1="0" y1="0" x2="1920" y2="0" stroke="rgba(255,255,255,0.18)" stroke-width="1"/>
<line x1="0" y1="80" x2="1920" y2="80" stroke="rgba(255,255,255,0.18)" stroke-width="1"/>
<line x1="0" y1="160" x2="1920" y2="160" stroke="rgba(255,255,255,0.18)" stroke-width="1"/>
<line x1="0" y1="240" x2="1920" y2="240" stroke="rgba(255,255,255,0.18)" stroke-width="1"/>
<line x1="0" y1="320" x2="1920" y2="320" stroke="rgba(255,255,255,0.18)" stroke-width="1"/>
<line x1="0" y1="400" x2="1920" y2="400" stroke="rgba(255,255,255,0.18)" stroke-width="1"/>
<line x1="0" y1="480" x2="1920" y2="480" stroke="rgba(255,255,255,0.18)" stroke-width="1"/>
<line x1="0" y1="560" x2="1920" y2="560" stroke="rgba(255,255,255,0.18)" stroke-width="1"/>
<line x1="0" y1="640" x2="1920" y2="640" stroke="rgba(255,255,255,0.18)" stroke-width="1"/>
<line x1="0" y1="720" x2="1920" y2="720" stroke="rgba(255,255,255,0.18)" stroke-width="1"/>
<line x1="0" y1="800" x2="1920" y2="800" stroke="rgba(255,255,255,0.18)" stroke-width="1"/>
<line x1="0" y1="880" x2="1920" y2="880" stroke="rgba(255,255,255,0.18)" stroke-width="1"/>
<line x1="0" y1="960" x2="1920" y2="960" stroke="rgba(255,255,255,0.18)" stroke-width="1"/>
<line x1="0" y1="1040" x2="1920" y2="1040" stroke="rgba(255,255,255,0.18)" stroke-width="1"/>
  <line x1="0" y1="0" x2="0" y2="1080" stroke="rgba(255,255,255,0.38)" stroke-width="1.2"/>
<line x1="400" y1="0" x2="400" y2="1080" stroke="rgba(255,255,255,0.38)" stroke-width="1.2"/>
<line x1="800" y1="0" x2="800" y2="1080" stroke="rgba(255,255,255,0.38)" stroke-width="1.2"/>
<line x1="1200" y1="0" x2="1200" y2="1080" stroke="rgba(255,255,255,0.38)" stroke-width="1.2"/>
<line x1="1600" y1="0" x2="1600" y2="1080" stroke="rgba(255,255,255,0.38)" stroke-width="1.2"/>
<line x1="0" y1="0" x2="1920" y2="0" stroke="rgba(255,255,255,0.38)" stroke-width="1.2"/>
<line x1="0" y1="400" x2="1920" y2="400" stroke="rgba(255,255,255,0.38)" stroke-width="1.2"/>
<line x1="0" y1="800" x2="1920" y2="800" stroke="rgba(255,255,255,0.38)" stroke-width="1.2"/>
  <rect x="250" y="800" width="440" height="160" fill="none" stroke="rgba(255,255,255,0.62)" stroke-width="2.5"/>
<line x1="250" y1="800" x2="690" y2="830" stroke="rgba(255,255,255,0.18)" stroke-width="1"/>
<line x1="250" y1="812" x2="690" y2="842" stroke="rgba(255,255,255,0.18)" stroke-width="1"/>
<line x1="250" y1="824" x2="690" y2="854" stroke="rgba(255,255,255,0.18)" stroke-width="1"/>
<line x1="250" y1="836" x2="690" y2="866" stroke="rgba(255,255,255,0.18)" stroke-width="1"/>
<line x1="250" y1="848" x2="690" y2="878" stroke="rgba(255,255,255,0.18)" stroke-width="1"/>
<line x1="250" y1="860" x2="690" y2="890" stroke="rgba(255,255,255,0.18)" stroke-width="1"/>
<line x1="250" y1="872" x2="690" y2="902" stroke="rgba(255,255,255,0.18)" stroke-width="1"/>
<line x1="250" y1="884" x2="690" y2="914" stroke="rgba(255,255,255,0.18)" stroke-width="1"/>
<line x1="250" y1="896" x2="690" y2="926" stroke="rgba(255,255,255,0.18)" stroke-width="1"/>
<line x1="250" y1="908" x2="690" y2="938" stroke="rgba(255,255,255,0.18)" stroke-width="1"/>
<line x1="250" y1="920" x2="690" y2="950" stroke="rgba(255,255,255,0.18)" stroke-width="1"/>
<line x1="250" y1="932" x2="690" y2="962" stroke="rgba(255,255,255,0.18)" stroke-width="1"/>
<line x1="250" y1="944" x2="690" y2="974" stroke="rgba(255,255,255,0.18)" stroke-width="1"/>
<line x1="250" y1="956" x2="690" y2="986" stroke="rgba(255,255,255,0.18)" stroke-width="1"/>
<line x1="250" y1="968" x2="690" y2="998" stroke="rgba(255,255,255,0.18)" stroke-width="1"/>
<line x1="250" y1="980" x2="690" y2="1010" stroke="rgba(255,255,255,0.18)" stroke-width="1"/>
<line x1="280" y1="320" x2="280" y2="800" stroke="rgba(255,255,255,0.62)" stroke-width="3"/>
<line x1="660" y1="320" x2="660" y2="800" stroke="rgba(255,255,255,0.62)" stroke-width="3"/>
<line x1="305" y1="320" x2="305" y2="800" stroke="rgba(255,255,255,0.18)" stroke-width="1"/>
<line x1="355" y1="320" x2="355" y2="800" stroke="rgba(255,255,255,0.18)" stroke-width="1"/>
<line x1="405" y1="320" x2="405" y2="800" stroke="rgba(255,255,255,0.18)" stroke-width="1"/>
<line x1="455" y1="320" x2="455" y2="800" stroke="rgba(255,255,255,0.18)" stroke-width="1"/>
<line x1="505" y1="320" x2="505" y2="800" stroke="rgba(255,255,255,0.18)" stroke-width="1"/>
<line x1="555" y1="320" x2="555" y2="800" stroke="rgba(255,255,255,0.18)" stroke-width="1"/>
<line x1="605" y1="320" x2="605" y2="800" stroke="rgba(255,255,255,0.18)" stroke-width="1"/>
<line x1="268" y1="320" x2="268" y2="800" stroke="rgba(255,255,255,0.38)" stroke-width="1.5"/>
<line x1="250" y1="800" x2="690" y2="800" stroke="rgba(255,255,255,0.62)" stroke-width="2"/>
<line x1="250" y1="780" x2="690" y2="780" stroke="rgba(255,255,255,0.38)" stroke-width="1"/>
<line x1="250" y1="320" x2="690" y2="320" stroke="rgba(255,255,255,0.62)" stroke-width="2.5"/>
<line x1="230" y1="320" x2="470.0" y2="170" stroke="rgba(255,255,255,0.62)" stroke-width="3"/>
<line x1="470.0" y1="170" x2="710" y2="320" stroke="rgba(255,255,255,0.62)" stroke-width="3"/>
<line x1="230" y1="340" x2="470.0" y2="190" stroke="rgba(255,255,255,0.38)" stroke-width="1.5"/>
<line x1="470.0" y1="190" x2="710" y2="340" stroke="rgba(255,255,255,0.38)" stroke-width="1.5"/>
<line x1="230.0" y1="320.0" x2="238.0" y2="308.0" stroke="rgba(255,255,255,0.18)" stroke-width="1"/>
<line x1="264.2857142857143" y1="298.57142857142856" x2="272.2857142857143" y2="286.57142857142856" stroke="rgba(255,255,255,0.18)" stroke-width="1"/>
<line x1="298.57142857142856" y1="277.14285714285717" x2="306.57142857142856" y2="265.14285714285717" stroke="rgba(255,255,255,0.18)" stroke-width="1"/>
<line x1="332.85714285714283" y1="255.71428571428572" x2="340.85714285714283" y2="243.71428571428572" stroke="rgba(255,255,255,0.18)" stroke-width="1"/>
<line x1="367.1428571428571" y1="234.28571428571428" x2="375.1428571428571" y2="222.28571428571428" stroke="rgba(255,255,255,0.18)" stroke-width="1"/>
<line x1="401.42857142857144" y1="212.85714285714286" x2="409.42857142857144" y2="200.85714285714286" stroke="rgba(255,255,255,0.18)" stroke-width="1"/>
<line x1="435.71428571428567" y1="191.42857142857144" x2="443.71428571428567" y2="179.42857142857144" stroke="rgba(255,255,255,0.18)" stroke-width="1"/>
<line x1="670" y1="260" x2="710" y2="260" stroke="rgba(255,255,255,0.38)" stroke-width="1"/>
<line x1="710" y1="260" x2="980" y2="260" stroke="rgba(255,255,255,0.38)" stroke-width="1"/>
<circle cx="670" cy="260" r="3" fill="rgba(255,255,255,0.62)"/>
<text x="724" y="265" font-family="'IBM Plex Mono', ui-monospace, monospace" font-size="12" fill="rgba(255,255,255,0.55)" letter-spacing="0.15em">ASPHALT SHINGLE ROOFING</text>
<line x1="670" y1="340" x2="710" y2="340" stroke="rgba(255,255,255,0.38)" stroke-width="1"/>
<line x1="710" y1="340" x2="980" y2="340" stroke="rgba(255,255,255,0.38)" stroke-width="1"/>
<circle cx="670" cy="340" r="3" fill="rgba(255,255,255,0.62)"/>
<text x="724" y="345" font-family="'IBM Plex Mono', ui-monospace, monospace" font-size="12" fill="rgba(255,255,255,0.55)" letter-spacing="0.15em">2x10 RAFTERS @ 16" O.C.</text>
<line x1="670" y1="500" x2="710" y2="500" stroke="rgba(255,255,255,0.38)" stroke-width="1"/>
<line x1="710" y1="500" x2="980" y2="500" stroke="rgba(255,255,255,0.38)" stroke-width="1"/>
<circle cx="670" cy="500" r="3" fill="rgba(255,255,255,0.62)"/>
<text x="724" y="505" font-family="'IBM Plex Mono', ui-monospace, monospace" font-size="12" fill="rgba(255,255,255,0.55)" letter-spacing="0.15em">2x6 STUDS @ 16" O.C.</text>
<line x1="670" y1="660" x2="710" y2="660" stroke="rgba(255,255,255,0.38)" stroke-width="1"/>
<line x1="710" y1="660" x2="980" y2="660" stroke="rgba(255,255,255,0.38)" stroke-width="1"/>
<circle cx="670" cy="660" r="3" fill="rgba(255,255,255,0.62)"/>
<text x="724" y="665" font-family="'IBM Plex Mono', ui-monospace, monospace" font-size="12" fill="rgba(255,255,255,0.55)" letter-spacing="0.15em">R-21 BATT INSULATION</text>
<line x1="670" y1="820" x2="710" y2="820" stroke="rgba(255,255,255,0.38)" stroke-width="1"/>
<line x1="710" y1="820" x2="980" y2="820" stroke="rgba(255,255,255,0.38)" stroke-width="1"/>
<circle cx="670" cy="820" r="3" fill="rgba(255,255,255,0.62)"/>
<text x="724" y="825" font-family="'IBM Plex Mono', ui-monospace, monospace" font-size="12" fill="rgba(255,255,255,0.55)" letter-spacing="0.15em">GYPSUM BOARD INTERIOR</text>
<line x1="670" y1="780" x2="710" y2="780" stroke="rgba(255,255,255,0.38)" stroke-width="1"/>
<line x1="710" y1="780" x2="980" y2="780" stroke="rgba(255,255,255,0.38)" stroke-width="1"/>
<circle cx="670" cy="780" r="3" fill="rgba(255,255,255,0.62)"/>
<text x="724" y="785" font-family="'IBM Plex Mono', ui-monospace, monospace" font-size="12" fill="rgba(255,255,255,0.55)" letter-spacing="0.15em">ENGINEERED FLOOR JOIST</text>
<line x1="670" y1="880" x2="710" y2="880" stroke="rgba(255,255,255,0.38)" stroke-width="1"/>
<line x1="710" y1="880" x2="980" y2="880" stroke="rgba(255,255,255,0.38)" stroke-width="1"/>
<circle cx="670" cy="880" r="3" fill="rgba(255,255,255,0.62)"/>
<text x="724" y="885" font-family="'IBM Plex Mono', ui-monospace, monospace" font-size="12" fill="rgba(255,255,255,0.55)" letter-spacing="0.15em">CONCRETE FOUNDATION WALL</text>
<line x1="160" y1="170" x2="160" y2="960" stroke="rgba(255,255,255,0.4)" stroke-width="1"/>
<line x1="150" y1="170" x2="170" y2="170" stroke="rgba(255,255,255,0.4)" stroke-width="1"/>
<line x1="150" y1="960" x2="170" y2="960" stroke="rgba(255,255,255,0.4)" stroke-width="1"/>
<text x="140" y="540.0" text-anchor="middle" font-family="'IBM Plex Mono', ui-monospace, monospace" font-size="13" fill="rgba(255,255,255,0.55)" letter-spacing="0.15em" transform="rotate(-90, 140, 540.0)">28'-0"</text>
<text x="470.0" y="1020" text-anchor="middle" font-family="'IBM Plex Mono', ui-monospace, monospace" font-size="14" fill="rgba(255,255,255,0.62)" letter-spacing="0.25em">WALL SECTION</text>
<text x="470.0" y="1044" text-anchor="middle" font-family="'IBM Plex Mono', ui-monospace, monospace" font-size="11" fill="rgba(255,255,255,0.55)" letter-spacing="0.18em">SCALE 3/4" = 1'-0"</text>
  
  <!-- Title block -->
  <g transform="translate(1500, 60)" font-family="'IBM Plex Mono', ui-monospace, monospace" font-size="13" fill="rgba(255,255,255,0.55)" letter-spacing="0.08em">
    <rect x="0" y="0" width="380" height="120" fill="none" stroke="rgba(255,255,255,0.62)" stroke-width="1.5"/>
    <line x1="0" y1="40" x2="380" y2="40" stroke="rgba(255,255,255,0.38)" stroke-width="1"/>
    <line x1="0" y1="80" x2="380" y2="80" stroke="rgba(255,255,255,0.38)" stroke-width="1"/>
    <line x1="240" y1="40" x2="240" y2="120" stroke="rgba(255,255,255,0.38)" stroke-width="1"/>
    <text x="14" y="25" fill="rgba(255,255,255,0.62)" font-size="11" letter-spacing="0.18em">PROJECT</text>
    <text x="14" y="65" font-size="14" letter-spacing="0.05em">BLACK JETT DEVELOPMENT, LLC</text>
    <text x="14" y="105" letter-spacing="0.10em">SCALE  1/4" = 1'-0"</text>
    <text x="254" y="105" letter-spacing="0.10em">SHEET  A-501</text>
  </g>
</svg>